<?xml version="1.0" encoding="UTF-8"?>
<svg width="1090px" height="170px" viewBox="0 0 1090 170" version="1.1" xmlns="http://www.w3.org/2000/svg" xmlns:xlink="http://www.w3.org/1999/xlink" style="background: #0050A4;">
    <!-- Generator: Sketch 49.1 (51147) - http://www.bohemiancoding.com/sketch -->
    <title>logo-no-margin-ext</title>
    <desc>Created with Sketch.</desc>
    <defs></defs>
    <g id="logo-no-margin-ext" stroke="none" stroke-width="1" fill="none" fill-rule="evenodd">
        <path d="M0,70 L0,60 L10,60 L20,60 L30,60 L40,60 L50,60 L60,60 L70,60 L80,60 L90,60 L90,70 L90,80 L100,80 L100,90 L110,90 L110,100 L110,110 L110,120 L110,130 L100,130 L90,130 L90,120 L90,130 L100,130 L100,140 L90,140 L90,150 L90,160 L80,160 L80,170 L70,170 L60,170 L50,170 L40,170 L30,170 L20,170 L10,170 L10,160 L0,160 L0,150 L0,140 L0,130 L0,120 L0,110 L0,100 L0,90 L0,80 L0,70 Z M90,120 L90,110 L90,100 L100,100 L100,110 L100,120 Z M10,100 L10,90 Z" id="Combined-Shape" fill="#FFFFFF"></path>
        <path d="M20,110 L30,110 L30,120 L30,130 L30,140 L40,140 L40,150 L30,150 L20,150 L20,140 L20,130 L10,130 L10,120 L10,110 L10,100 L20,100 L20,110 Z" id="Combined-Shape" fill="#C9C9C9"></path>
        <path d="M180,130 L180,140 L170,140 L170,130 L170,120 L170,110 L170,100 L170,90 L160,90 L160,100 L160,110 L150,110 L150,100 L150,90 L140,90 L140,100 L140,110 L140,120 L140,130 L140,140 L130,140 L130,130 L130,120 L130,110 L130,100 L130,90 L130,80 L140,80 L150,80 L160,80 L170,80 L180,80 L180,90 L180,100 L180,110 L180,120 L180,130 Z" id="Combined-Shape" fill="#F5A623"></path>
        <path d="M230,130 L230,120 L230,110 L230,100 L230,90 L230,80 L240,80 L240,90 L240,100 L240,110 L240,120 L240,130 L240,140 L230,140 L220,140 L210,140 L200,140 L190,140 L190,130 L190,120 L190,110 L190,100 L190,90 L190,80 L200,80 L200,90 L200,100 L200,110 L200,120 L200,130 L210,130 L220,130 L230,130 Z" id="Combined-Shape" fill="#F5A623"></path>
        <path d="M280,90 L270,90 L260,90 L260,100 L260,110 L260,120 L260,130 L270,130 L280,130 L290,130 L290,120 L280,120 L280,110 L290,110 L300,110 L300,120 L300,130 L300,140 L290,140 L280,140 L270,140 L260,140 L250,140 L250,130 L250,120 L250,110 L250,100 L250,90 L250,80 L260,80 L270,80 L280,80 L290,80 L290,90 L280,90 Z" id="Combined-Shape" fill="#F5A623"></path>
        <path d="M340,130 L340,140 L330,140 L330,130 L330,120 L330,110 L330,100 L330,90 L330,80 L340,80 L350,80 L360,80 L370,80 L380,80 L380,90 L380,100 L380,110 L380,120 L380,130 L380,140 L370,140 L370,130 L370,120 L370,110 L370,100 L370,90 L360,90 L360,100 L360,110 L350,110 L350,100 L350,90 L340,90 L340,100 L340,110 L340,120 L340,130 Z" id="Combined-Shape" fill="#C9C9C9"></path>
        <path d="M400,130 L400,140 L390,140 L390,130 L390,120 L390,110 L390,100 L400,100 L400,110 L410,110 L420,110 L420,100 L430,100 L430,110 L430,120 L430,130 L430,140 L420,140 L420,130 L420,120 L410,120 L400,120 L400,130 Z" id="Combined-Shape" fill="#C9C9C9"></path>
        <path d="M440,130 L440,120 L440,110 L440,100 L440,90 L450,90 L450,100 L450,110 L460,110 L460,120 L450,120 L450,130 L450,140 L440,140 L440,130 Z" id="Combined-Shape" fill="#C9C9C9"></path>
        <rect id="Rectangle-2-Copy-29" fill="#C9C9C9" x="470" y="90" width="10" height="10"></rect>
        <rect id="Rectangle-2-Copy-29" fill="#C9C9C9" x="460" y="100" width="10" height="10"></rect>
        <path d="M490,120 L490,110 L490,100 L500,100 L500,110 L500,120 L500,130 L490,130 L490,120 Z" id="Combined-Shape" fill="#C9C9C9"></path>
        <path d="M520,100 L510,100 L500,100 L500,90 L510,90 L520,90 L530,90 L530,100 L520,100 Z" id="Combined-Shape" fill="#C9C9C9"></path>
        <path d="M750,140 L740,140 L730,140 L730,130 L740,130 L750,130 L760,130 L760,140 L750,140 Z M740,90 L750,90 L750,100 L740,100 L730,100 L730,90 L740,90 Z M740,110 L750,110 L750,120 L740,120 L730,120 L730,110 L740,110 Z M720,110 L720,100 L730,100 L730,110 L720,110 Z M750,100 L760,100 L760,110 L750,110 L750,100 Z M720,120 L730,120 L730,130 L720,130 L720,120 Z" id="Combined-Shape" fill="#C9C9C9"></path>
        <path d="M770,130 L770,120 L770,110 L770,100 L770,90 L780,90 L780,100 L780,110 L790,110 L790,120 L780,120 L780,130 L780,140 L770,140 L770,130 Z M800,90 L810,90 L810,100 L800,100 L800,90 Z M790,100 L800,100 L800,110 L790,110 L790,100 Z" id="Combined-Shape" fill="#C9C9C9"></path>
        <path d="M900,130 L900,120 L900,110 L900,100 L900,90 L910,90 L910,100 L910,110 L920,110 L920,120 L910,120 L910,130 L910,140 L900,140 L900,130 Z M920,100 L930,100 L930,110 L920,110 L920,100 Z M930,90 L940,90 L940,100 L930,100 L930,90 Z" id="Combined-Shape" fill="#C9C9C9"></path>
        <rect id="Rectangle-2-Copy-29" fill="#C9C9C9" x="400" y="90" width="10" height="10"></rect>
        <rect id="Rectangle-2-Copy-29" fill="#C9C9C9" x="410" y="90" width="10" height="10"></rect>
        <path d="M550,130 L550,140 L540,140 L540,130 L540,120 L540,110 L540,100 L550,100 L550,110 L560,110 L570,110 L570,100 L580,100 L580,110 L580,120 L580,130 L580,140 L570,140 L570,130 L570,120 L560,120 L550,120 L550,130 Z" id="Combined-Shape" fill="#C9C9C9"></path>
        <path d="M560,90 L570,90 L570,100 L560,100 L550,100 L550,90 L560,90 Z" id="Combined-Shape" fill="#C9C9C9"></path>
        <path d="M680,140 L670,140 L670,130 L680,130 L690,130 L700,130 L700,120 L710,120 L710,130 L710,140 L700,140 L690,140 L680,140 Z M690,120 L680,120 L670,120 L670,110 L670,100 L680,100 L680,110 L690,110 L700,110 L700,120 L690,120 Z M690,100 L680,100 L680,90 L690,90 L700,90 L700,100 L690,100 Z" id="Combined-Shape" fill="#C9C9C9"></path>
        <path d="M650,130 L650,120 L650,110 L650,100 L650,90 L650,80 L660,80 L660,90 L660,100 L660,110 L660,120 L660,130 L660,140 L650,140 L640,140 L630,140 L620,140 L610,140 L610,130 L610,120 L610,110 L610,100 L610,90 L610,80 L620,80 L620,90 L620,100 L620,110 L620,120 L620,130 L630,130 L640,130 L650,130 Z" id="Combined-Shape" fill="#C9C9C9"></path>
        <path d="M880,140 L870,140 L860,140 L850,140 L840,140 L840,130 L840,120 L840,110 L840,100 L840,90 L840,80 L850,80 L860,80 L870,80 L880,80 L880,90 L870,90 L860,90 L850,90 L850,100 L850,110 L850,120 L850,130 L860,130 L870,130 L880,130 L880,120 L870,120 L870,110 L880,110 L890,110 L890,120 L890,130 L890,140 L880,140 Z" id="Combined-Shape" fill="#C9C9C9"></path>
        <path d="M1030,140 L1020,140 L1010,140 L1010,130 L1020,130 L1030,130 L1030,120 L1030,110 L1030,100 L1030,90 L1040,90 L1040,100 L1040,110 L1040,120 L1040,130 L1040,140 L1030,140 Z M1010,120 L1010,130 L1000,130 L1000,120 L1000,110 L1000,100 L1000,90 L1010,90 L1010,100 L1010,110 L1010,120 Z" id="Combined-Shape" fill="#C9C9C9"></path>
        <path d="M970,130 L980,130 L980,140 L970,140 L960,140 L950,140 L950,130 L950,120 L950,110 L950,100 L960,100 L960,110 L960,120 L960,130 L970,130 Z M990,110 L990,120 L990,130 L980,130 L980,120 L980,110 L980,100 L970,100 L960,100 L960,90 L970,90 L980,90 L990,90 L990,100 L990,110 Z" id="Combined-Shape" fill="#C9C9C9"></path>
        <path d="M1060,130 L1060,140 L1050,140 L1050,130 L1050,120 L1050,110 L1050,100 L1050,90 L1060,90 L1070,90 L1080,90 L1090,90 L1090,100 L1090,110 L1090,120 L1080,120 L1070,120 L1060,120 L1060,130 Z M1080,110 L1080,100 L1070,100 L1060,100 L1060,110 L1070,110 L1080,110 Z" id="Combined-Shape" fill="#C9C9C9"></path>
        <rect id="Rectangle-2-Copy-3" fill="#C9C9C9" x="20" y="40" width="10" height="10"></rect>
        <rect id="Rectangle-2-Copy-3" fill="#C9C9C9" x="60" y="40" width="10" height="10"></rect>
        <path d="M70,30 L70,20 L80,20 L80,30 L80,40 L70,40 L70,30 Z" id="Combined-Shape" fill="#C9C9C9"></path>
        <rect id="Rectangle-2-Copy-3" fill="#C9C9C9" x="60" y="10" width="10" height="10"></rect>
        <rect id="Rectangle-2-Copy-3" fill="#C9C9C9" x="70" y="0" width="10" height="10"></rect>
        <rect id="Rectangle-2-Copy-3" fill="#C9C9C9" x="40" y="40" width="10" height="10"></rect>
        <rect id="Rectangle-2-Copy-3" fill="#C9C9C9" x="50" y="30" width="10" height="10"></rect>
        <rect id="Rectangle-2-Copy-3" fill="#C9C9C9" x="40" y="20" width="10" height="10"></rect>
        <path d="M520,140 L510,140 L500,140 L500,130 L510,130 L520,130 L530,130 L530,140 L520,140 Z" id="Combined-Shape" fill="#C9C9C9"></path>
    </g>
</svg>