<svg xmlns="http://www.w3.org/2000/svg" version="1.1" xmlns:xlink="http://www.w3.org/1999/xlink" xmlns:svgjs="http://svgjs.com/svgjs" width="180px" height="180px"><svg width="180px" height="180px" viewBox="-40 -5 180 180" version="1.1" xmlns="http://www.w3.org/2000/svg" xmlns:xlink="http://www.w3.org/1999/xlink" style="background: none;">
    <!-- Generator: Sketch 49.1 (51147) - http://www.bohemiancoding.com/sketch -->
    <title>logo-sticker</title>
    <desc>Created with Sketch and edited by hand.</desc>
    <defs></defs>
    <g id="SvgjsG1012" stroke="none" stroke-width="1" fill="none" fill-rule="evenodd">
        <g id="SvgjsG1011">
            <path d="M0,70 L0,60 L10,60 L20,60 L30,60 L40,60 L50,60 L60,60 L70,60 L80,60 L90,60 L90,70 L90,80 L100,80 L100,90 L110,90 L110,100 L110,110 L110,120 L110,130 L100,130 L90,130 L90,120 L90,130 L100,130 L100,140 L90,140 L90,150 L90,160 L80,160 L80,170 L70,170 L60,170 L50,170 L40,170 L30,170 L20,170 L10,170 L10,160 L0,160 L0,150 L0,140 L0,130 L0,120 L0,110 L0,100 L0,90 L0,80 L0,70 Z M90,120 L90,110 L90,100 L100,100 L100,110 L100,120 Z M10,100 L10,90 Z" id="SvgjsPath1010" fill="#0050A4"></path>
            <path d="M20,110 L30,110 L30,120 L30,130 L30,140 L40,140 L40,150 L30,150 L20,150 L20,140 L20,130 L10,130 L10,120 L10,110 L10,100 L20,100 L20,110 Z" id="SvgjsPath1009" fill="#C9C9C9"></path>
            <g id="SvgjsG1008" fill="#C9C9C9">
                <rect id="SvgjsRect1007" x="20" y="40" width="10" height="10"></rect>
                <rect id="SvgjsRect1006" x="60" y="40" width="10" height="10"></rect>
                <path d="M70,30 L70,20 L80,20 L80,30 L80,40 L70,40 L70,30 Z" id="SvgjsPath1005"></path>
                <rect id="SvgjsRect1004" x="60" y="10" width="10" height="10"></rect>
                <rect id="SvgjsRect1003" x="70" y="0" width="10" height="10"></rect>
                <rect id="SvgjsRect1002" x="40" y="40" width="10" height="10"></rect>
                <rect id="SvgjsRect1001" x="50" y="30" width="10" height="10"></rect>
                <rect id="SvgjsRect1000" x="40" y="20" width="10" height="10"></rect>
            </g>
        </g>
    </g>
</svg><style>@media (prefers-color-scheme: light) { :root { filter: none; } }
</style></svg>