<svg width="88" height="25" viewBox="0 0 88 25" fill="none" xmlns="http://www.w3.org/2000/svg">
<path d="M0.99 10.89C2.64 10.791 2.772 11.517 2.772 13.233V24.189H7.392V15.081C7.392 12.837 8.778 11.616 10.461 11.583C12.144 11.583 13.266 12.837 13.266 14.982V24.189H17.754V14.982C17.787 12.87 19.074 11.583 20.691 11.583C22.275 11.583 23.364 12.837 23.265 14.949V20.361C23.265 24.42 26.301 24.948 29.733 24.057V21.384C28.05 21.483 27.885 20.757 27.885 19.305V14.949C27.984 11.022 26.961 7.91996 22.473 7.91996C20.229 7.91996 18.051 8.81096 17.028 10.89C16.269 8.94296 14.883 7.91996 12.144 7.91996C9.999 7.91996 7.986 8.77796 7.194 10.758C7.194 7.49096 3.3 7.58996 0.99 8.21696V10.89ZM48.634 16.17C48.634 10.626 44.41 7.82096 40.186 7.82096C35.962 7.82096 31.771 10.626 31.771 16.17C31.771 21.747 35.962 24.552 40.186 24.552C44.41 24.552 48.634 21.747 48.634 16.17ZM36.358 16.17C36.358 13.299 38.272 11.88 40.219 11.88C42.133 11.88 44.047 13.332 44.047 16.17C44.047 19.041 42.166 20.493 40.219 20.493C38.272 20.493 36.358 19.074 36.358 16.17ZM56.5543 14.124V0.0659646H51.9673V24.156H56.5543V17.754H57.6103C58.1053 17.754 58.5343 17.688 58.9303 17.556L62.7253 24.156H67.3783V23.694L62.8243 16.104C65.9593 14.454 66.7183 11.616 66.6193 8.24996H62.2633C62.2633 11.517 61.3393 14.124 57.6763 14.124H56.5543ZM80.9271 8.28296V17.292C80.9271 19.437 79.5081 20.823 77.6601 20.79C76.0431 20.79 74.8221 19.635 74.9211 17.391V8.28296H70.2681V17.391C70.2681 21.351 71.5881 24.42 76.1751 24.42C78.1551 24.42 80.3661 23.727 81.2571 21.879C81.2571 24.948 84.8211 24.717 87.0651 24.189L87.0321 21.318C85.6131 21.417 85.5471 20.889 85.5471 19.404V8.28296H80.9271Z" fill="url(#paint0_linear_2601_2276)"/>
<defs>
<linearGradient id="paint0_linear_2601_2276" x1="1.94913" y1="15.6681" x2="85.2008" y2="15.6681" gradientUnits="userSpaceOnUse">
<stop offset="0.285736" stop-color="#5377F9"/>
<stop offset="0.796875" stop-color="#FF7878"/>
</linearGradient>
</defs>
</svg>
