<?xml version="1.0" encoding="utf-8"?>
<!-- Generator: Adobe Illustrator 21.0.0, SVG Export Plug-In . SVG Version: 6.00 Build 0)  -->
<svg version="1.1" id="Livello_1" xmlns="http://www.w3.org/2000/svg" xmlns:xlink="http://www.w3.org/1999/xlink" x="0px" y="0px"
	 viewBox="0 0 841.9 595.3" style="enable-background:new 0 0 841.9 595.3;" xml:space="preserve">
<style type="text/css">
	.st0{fill:#545352;}
	.st1{fill:url(#SVGID_1_);}
</style>
<g>
	<g>
		<path class="st0" d="M397.4,355.8c0.6-1.5,0.6-3.1-0.1-4.5v0c-0.6-1.5-1.8-2.6-3.2-3.2c-1.5-0.6-3.1-0.6-4.6,0
			c-1.5,0.6-2.6,1.8-3.2,3.2L363.7,408l-23.6-56.7c-0.9-2.3-3.2-3.6-5.5-3.6c-0.8,0-1.5,0.1-2.3,0.5c-1.5,0.6-2.7,1.8-3.3,3.3
			c-0.6,1.5-0.6,3.1,0,4.5l28.9,69.5c0.3,0.8,0.9,1.6,1.4,2l0.2,0.2c0.6,0.7,1.4,1.2,2.2,1.5c3,1.2,6.6-0.4,7.8-3.4L397.4,355.8z"/>
		<path class="st0" d="M614.6,347.3c-22.7,0-41.2,18.5-41.2,41.2c0,22.7,18.5,41.2,41.2,41.2c22.7,0,41.2-18.5,41.2-41.2
			C655.8,365.7,637.3,347.3,614.6,347.3z M614.6,417c-15.7,0-28.6-12.8-28.6-28.6c0-15.7,12.8-28.6,28.6-28.6
			c15.7,0,28.6,12.8,28.6,28.6C643.2,404.2,630.4,417,614.6,417z"/>
		<path class="st0" d="M540.1,304.4c-3.6,0-6.4,2.7-6.4,6.2v112.6c0,3.6,2.8,6.4,6.4,6.4c3.5,0,6.2-2.8,6.2-6.4V310.6
			C546.3,307.2,543.5,304.4,540.1,304.4z"/>
		<path class="st0" d="M302.4,388.4c0-22.7-18.5-41.2-41.2-41.2s-41.2,18.5-41.2,41.2c0,22.7,18.5,41.2,41.2,41.2
			c9.1,0,17.7-2.9,24.9-8.5l3.6-2.8v4.9c0,3.6,2.8,6.4,6.4,6.4c3.5,0,6.2-2.8,6.2-6.4v-33.7c0,0,0-0.1,0-0.3c0-0.3,0-0.4,0-0.6
			L302.4,388.4z M261.2,417c-15.7,0-28.6-12.8-28.6-28.6c0-15.7,12.8-28.6,28.6-28.6c15.7,0,28.6,12.8,28.6,28.6
			C289.8,404.2,277,417,261.2,417z"/>
		<path class="st0" d="M725.1,347.3c-22.7,0-41.2,18.5-41.2,41.2v77.7c0,3.5,2.8,6.2,6.4,6.2c3.4,0,6.2-2.8,6.2-6.2v-47.6l3.6,2.8
			c7.1,5.4,15.9,8.4,24.9,8.4c22.7,0,41.2-18.5,41.2-41.2C766.3,365.7,747.8,347.3,725.1,347.3z M725.1,417
			c-15.7,0-28.6-12.7-28.6-28.4c0-15.9,12.8-28.7,28.6-28.7s28.6,12.8,28.6,28.6C753.6,404.2,740.8,417,725.1,417z"/>
		<path class="st0" d="M506.5,388.7l0-0.2c0-0.3,0-0.6,0-0.9c-0.4-22.5-18.4-40.3-41.1-40.3c-22.7,0-41.2,18.5-41.2,41.2
			c0,22.7,18.5,41.2,41.2,41.2c10.6,0,20.7-4.1,28.5-11.6l0.2-0.2c0.3-0.3,0.7-0.6,1-0.9l0.1-0.1c0.6-0.8,1.4-2.1,1.4-3.8
			c0-3.5-2.7-6.2-6.1-6.2H490c-2.2,0-3.9,1.4-5.9,3.1l-0.6,0.5c-0.7,0.5-1.4,1.1-2.1,1.6c-1.4,1-2.9,1.8-4.5,2.5
			c-3.2,1.4-6.6,2.3-10.1,2.4c-12.6,0.7-24.3-7.2-28.5-19.2l-1-3l63.4,0C504,394.5,506.5,391.9,506.5,388.7z M437.4,382.1l1-3
			c4-11.5,14.8-19.3,27-19.3c12.2,0,23,7.7,27,19.3l1,3H437.4z"/>
		<path class="st0" d="M192.9,397.3v-43.6c0-3.6-2.8-6.4-6.4-6.4c-3.5,0-6.2,2.8-6.2,6.4v43.6c0,10.9-8.9,19.7-19.9,19.7
			c-10.9,0-19.7-8.9-19.7-19.7v-43.6c0-3.5-2.9-6.4-6.4-6.4c-3.5,0-6.2,2.8-6.2,6.4v43.6c0,10.9-8.9,19.7-19.9,19.7
			c-11,0-19.9-8.9-19.9-19.7v-43.6c0-3.6-2.7-6.4-6.2-6.4c-3.5,0-6.4,2.9-6.4,6.4v42l0,1.9c0.3,17.7,14.7,32,32.5,32
			c9.4,0,18.3-4.1,24.4-11.2l1.7-2l1.7,2c6.1,7.1,15,11.2,24.4,11.2C178.3,429.6,192.9,415.1,192.9,397.3z"/>
	</g>
	<linearGradient id="SVGID_1_" gradientUnits="userSpaceOnUse" x1="283.3714" y1="199.8474" x2="560.1508" y2="199.8474">
		<stop  offset="0" style="stop-color:#2A2F70"/>
		<stop  offset="0.3157" style="stop-color:#444A9A"/>
		<stop  offset="0.6832" style="stop-color:#45A4DC"/>
		<stop  offset="1" style="stop-color:#52BFCF"/>
	</linearGradient>
	<path class="st1" d="M546.4,133.8l-4.3-3.3c-6.3-4.9-13.9-7.5-21.9-7.5c-11.1,0-21.4,5-28.2,13.7l-15,19.2c-1,1.3-1.5,3-1.3,4.7
		c0.2,1.7,1.1,3.2,2.4,4.2c1.1,0.9,2.5,1.3,3.9,1.3c2,0,3.8-0.9,5-2.4l15-19.2c4.4-5.6,11-8.9,18.2-8.9c5.2,0,10.1,1.7,14.2,4.9
		l4.3,3.3c4.9,3.8,8,9.2,8.7,15.4c0.8,6.1-0.9,12.2-4.7,17L521,203.9c-5.1,6.6-12.2,8-17.2,8c-0.6,0-1.2,0-1.7-0.1
		c-7.3-0.4-13.7-4.4-20.7-12.9c-0.5-0.6-0.9-1.1-1.4-1.7l-47.2-60.5c-6.8-8.7-17.1-13.7-28.2-13.7c-8,0-15.6,2.6-21.9,7.5l-4.3,3.3
		c-6.9,5.4-11.3,12.8-13,20.8l-14-17.9c-6.8-8.7-17.1-13.7-28.2-13.7c-8,0-15.6,2.6-21.9,7.5l-4.3,3.3
		c-15.5,12.1-18.3,34.6-6.2,50.1l61.6,79c5.9,7.5,14.3,12.3,23.8,13.5c1.5,0.2,3,0.3,4.5,0.3c8,0,15.5-2.6,21.9-7.5l4.3-3.3
		c6.7-5.2,11.2-12.6,13-20.8l14,17.9c6.8,8.7,17.1,13.7,28.2,13.7c8,0,15.6-2.6,21.9-7.5c3.1-2.4,5.4-4.5,7.3-6.7
		c2.3-2.6,5-6,5.9-10.1c0.4-1.6,0.1-3.3-0.8-4.8c-0.9-1.4-2.3-2.4-3.9-2.8c-0.5-0.1-1-0.2-1.5-0.2c-2.9,0-5.5,2-6.1,4.9
		c-0.3,1-1.3,2.6-3.1,4.7c-1.4,1.6-3.1,3.2-5.6,5.1c-4.1,3.2-9,4.9-14.2,4.9c-7.2,0-13.8-3.2-18.2-8.9l-30.1-38.7
		c-0.2-0.3-0.4-0.5-0.6-0.8l-31.4-40.4c-7.1-10-5.2-24,4.6-31.6l4.3-3.3c4.1-3.2,9-4.9,14.2-4.9c7.2,0,13.8,3.2,18.2,8.9L470,205
		c0.5,0.7,1,1.3,1.6,2c9.1,11.1,18.8,16.9,29.7,17.5c0.8,0,1.7,0.1,2.5,0.1c11.1,0,20.7-4.6,27.2-12.9l21.6-27.8
		C564.7,168.4,561.9,145.9,546.4,133.8z M403,260v1.7v0.8l0-0.8h0l0-0.9l0-1.7h0V260z M399.1,255.9l-4.3,3.3
		c-4.1,3.2-9,4.9-14.1,4.9c-1,0-1.9-0.1-2.9-0.2c-6.1-0.8-11.6-3.9-15.4-8.7l-61.6-79c-7.8-10-6-24.6,4-32.4l4.3-3.3
		c4.1-3.2,9-4.9,14.2-4.9c7.2,0,13.8,3.2,18.2,8.9l30.1,38.7c0.2,0.3,0.4,0.5,0.6,0.8l31.4,40.4
		C410.8,234.3,408.9,248.3,399.1,255.9z"/>
</g>
</svg>
