<svg width="800" height="400" viewBox="0 0 800 400" fill="none" xmlns="http://www.w3.org/2000/svg">
<rect width="800" height="400" fill="white"/>
<path d="M153.865 219.954C147.92 219.997 142.015 218.977 136.428 216.943C130.718 214.785 125.474 211.555 120.979 207.426L129.2 197.488C132.691 200.547 136.594 203.102 140.795 205.077C144.99 206.907 149.53 207.811 154.106 207.727C157.7 207.919 161.262 206.971 164.285 205.017C165.47 204.233 166.436 203.162 167.095 201.903C167.753 200.644 168.082 199.239 168.05 197.819V197.488C168.075 196.196 167.829 194.914 167.327 193.723C166.689 192.509 165.757 191.474 164.616 190.712C162.939 189.569 161.116 188.658 159.196 188.001C156.273 186.985 153.297 186.131 150.281 185.442C146.467 184.591 142.714 183.484 139.048 182.129C136.078 181.065 133.293 179.54 130.796 177.611C128.601 175.896 126.855 173.675 125.707 171.137C124.483 168.222 123.887 165.081 123.96 161.921V161.68C123.928 158.543 124.589 155.437 125.896 152.584C127.202 149.731 129.122 147.202 131.519 145.177C134.017 143.096 136.889 141.511 139.982 140.509C143.459 139.36 147.101 138.79 150.763 138.822C156.071 138.742 161.352 139.599 166.363 141.352C171.073 143.085 175.468 145.577 179.373 148.73L172.025 159.241C168.719 156.79 165.116 154.767 161.304 153.218C157.903 151.855 154.276 151.15 150.612 151.14C147.277 150.945 143.974 151.89 141.246 153.82C140.199 154.585 139.348 155.586 138.761 156.743C138.175 157.9 137.871 159.179 137.873 160.476V160.686C137.836 162.063 138.103 163.431 138.656 164.692C139.354 165.962 140.398 167.006 141.668 167.703C143.42 168.82 145.301 169.72 147.27 170.384C149.709 171.197 152.811 172.07 156.575 172.974C160.322 173.897 164.004 175.064 167.598 176.467C170.493 177.561 173.182 179.14 175.548 181.135C177.634 182.922 179.291 185.156 180.397 187.67C181.54 190.353 182.104 193.247 182.053 196.163V196.404C182.109 199.82 181.399 203.206 179.976 206.312C178.632 209.186 176.667 211.727 174.223 213.75C171.591 215.852 168.573 217.417 165.339 218.358C161.616 219.461 157.748 219.999 153.865 219.954Z" fill="#101820"/>
<path d="M193.285 159.361H207.048V169.269C209.2 166.131 211.942 163.441 215.119 161.348C218.722 159.094 222.918 157.972 227.165 158.126C230.716 158.129 234.23 158.839 237.503 160.214C240.776 161.59 243.742 163.603 246.229 166.137C248.923 168.917 251.042 172.203 252.463 175.804C254.092 180.008 254.89 184.487 254.812 188.995V189.236C254.897 193.729 254.12 198.196 252.523 202.396C251.161 205.987 249.115 209.281 246.5 212.094C243.936 214.703 240.86 216.753 237.465 218.117C234.196 219.454 230.697 220.139 227.165 220.135C222.944 220.307 218.762 219.262 215.119 217.123C211.996 215.096 209.263 212.526 207.048 209.534V236.638H193.285V159.361ZM224.033 208.239C226.302 208.252 228.549 207.79 230.629 206.884C232.671 205.994 234.515 204.704 236.05 203.089C237.664 201.352 238.904 199.302 239.694 197.066C240.629 194.532 241.088 191.846 241.049 189.145V188.904C241.08 186.233 240.621 183.579 239.694 181.074C238.875 178.852 237.638 176.807 236.05 175.051C234.508 173.403 232.642 172.092 230.568 171.201C228.495 170.309 226.26 169.857 224.003 169.871C221.745 169.881 219.512 170.35 217.44 171.251C215.369 172.152 213.504 173.465 211.957 175.111C210.343 176.871 209.067 178.913 208.192 181.135C207.225 183.609 206.744 186.247 206.777 188.904V189.145C206.751 191.811 207.232 194.458 208.192 196.945C209.048 199.176 210.326 201.221 211.957 202.969C213.534 204.595 215.418 205.895 217.498 206.793C219.555 207.716 221.779 208.208 224.033 208.239Z" fill="#101820"/>
<path d="M265.384 159.361H279.116V172.763C280.785 168.515 283.549 164.784 287.127 161.951C290.888 159.197 295.526 157.912 300.167 158.337V172.763H299.384C296.577 172.726 293.789 173.216 291.163 174.208C288.721 175.173 286.529 176.676 284.748 178.605C282.846 180.735 281.428 183.253 280.592 185.983C279.551 189.315 279.053 192.793 279.116 196.283V218.93H265.384V159.361Z" fill="#101820"/>
<path d="M335.762 220.165C331.638 220.207 327.545 219.439 323.716 217.907C320.094 216.481 316.796 214.34 314.019 211.612C311.235 208.822 309.034 205.505 307.544 201.855C305.941 197.865 305.142 193.597 305.195 189.296V189.086C305.154 184.972 305.879 180.887 307.333 177.039C308.684 173.388 310.729 170.034 313.356 167.162C315.891 164.368 318.964 162.114 322.391 160.536C326.07 158.874 330.069 158.042 334.106 158.097C338.394 158.011 342.646 158.896 346.544 160.687C350.039 162.312 353.126 164.7 355.579 167.674C358.06 170.687 359.932 174.155 361.09 177.883C362.309 181.833 362.918 185.946 362.897 190.08C362.897 190.682 362.897 191.314 362.897 191.947C362.897 192.579 362.897 193.242 362.716 193.934H318.928C319.387 198.267 321.462 202.267 324.74 205.138C327.922 207.757 331.944 209.136 336.064 209.022C339.085 209.097 342.082 208.479 344.827 207.216C347.505 205.847 349.945 204.057 352.055 201.915L360.066 209.022C357.242 212.369 353.782 215.122 349.887 217.124C345.487 219.244 340.645 220.286 335.762 220.165ZM349.284 184.9C349.06 182.836 348.564 180.81 347.809 178.877C347.132 177.043 346.109 175.356 344.797 173.908C343.516 172.512 341.97 171.386 340.25 170.595C337.523 169.392 334.497 169.036 331.565 169.572C328.633 170.11 325.93 171.515 323.806 173.606C320.954 176.729 319.19 180.691 318.777 184.9H349.284Z" fill="#101820"/>
<path d="M409.547 218.81V211.491C407.363 213.976 404.726 216.02 401.777 217.515C398.199 219.26 394.25 220.107 390.273 219.984C387.531 220.019 384.801 219.644 382.171 218.87C379.731 218.141 377.453 216.956 375.455 215.376C373.522 213.778 371.952 211.786 370.848 209.534C369.64 207.072 369.041 204.355 369.101 201.613V201.372C369.032 198.401 369.651 195.453 370.908 192.759C372.081 190.389 373.793 188.326 375.907 186.736C378.216 185.058 380.822 183.832 383.587 183.122C386.725 182.317 389.954 181.923 393.193 181.948C396.269 181.91 399.343 182.142 402.378 182.64C404.834 183.08 407.257 183.673 409.637 184.417V183.333C409.756 181.576 409.48 179.814 408.829 178.177C408.179 176.541 407.168 175.071 405.872 173.877C402.763 171.504 398.901 170.338 395.001 170.594C391.96 170.561 388.924 170.905 385.966 171.618C383.248 172.341 380.581 173.246 377.985 174.329L374.251 163.396C377.524 161.903 380.919 160.694 384.4 159.783C388.501 158.789 392.708 158.303 396.928 158.337C405.783 158.337 412.347 160.526 416.624 164.902C418.866 167.417 420.587 170.351 421.69 173.535C422.791 176.72 423.249 180.091 423.037 183.454V218.689L409.547 218.81ZM409.878 193.934C407.932 193.173 405.913 192.608 403.856 192.247C401.384 191.779 398.871 191.547 396.356 191.555C392.851 191.362 389.369 192.222 386.357 194.024C385.222 194.746 384.292 195.749 383.659 196.937C383.025 198.124 382.71 199.455 382.744 200.8V201.011C382.685 202.294 382.959 203.57 383.539 204.715C384.12 205.86 384.987 206.836 386.056 207.546C388.484 209.111 391.331 209.899 394.217 209.805C396.34 209.824 398.451 209.52 400.481 208.901C402.229 208.387 403.88 207.583 405.36 206.522C406.756 205.474 407.9 204.126 408.704 202.577C409.496 200.989 409.9 199.233 409.878 197.457V193.934Z" fill="#101820"/>
<path d="M435.896 136.593H449.63V185.712L474.295 159.361H490.858L467.186 183.453L491.642 218.689H475.859L457.97 193L449.63 201.673V218.689H435.896V136.593Z" fill="#101820"/>
<path d="M525.312 220.165C521.186 220.207 517.094 219.439 513.264 217.906C509.613 216.48 506.295 214.319 503.515 211.558C500.731 208.797 498.546 205.494 497.094 201.855C495.489 197.864 494.692 193.596 494.744 189.296V189.086C494.703 184.972 495.427 180.887 496.882 177.039C498.232 173.388 500.278 170.034 502.905 167.161C505.439 164.367 508.513 162.114 511.939 160.536C515.608 158.878 519.598 158.045 523.626 158.096C527.922 158.007 532.185 158.892 536.094 160.686C539.533 162.331 542.566 164.717 544.976 167.673C547.404 170.699 549.226 174.166 550.337 177.883C551.557 181.833 552.167 185.946 552.145 190.08C552.145 190.682 552.145 191.314 552.145 191.946C552.145 192.579 552.145 193.241 551.963 193.934H508.415C508.876 198.267 510.952 202.267 514.229 205.137C517.411 207.756 521.433 209.136 525.553 209.022C528.572 209.097 531.57 208.479 534.316 207.215C537.078 205.869 539.601 204.078 541.786 201.915L549.795 209.022C546.965 212.375 543.496 215.13 539.585 217.123C535.142 219.275 530.245 220.319 525.312 220.165ZM538.772 184.899C538.549 182.836 538.053 180.81 537.297 178.876C536.62 177.043 535.598 175.356 534.286 173.907C533.026 172.436 531.478 171.237 529.738 170.384C527.849 169.528 525.789 169.106 523.715 169.149C521.769 169.092 519.834 169.45 518.04 170.197C516.243 170.945 514.625 172.066 513.294 173.485C510.442 176.608 508.678 180.57 508.266 184.779L538.772 184.899Z" fill="#101820"/>
<path d="M562.864 159.361H576.598V172.763C578.265 168.522 581.019 164.794 584.577 161.951C588.312 159.236 592.898 157.953 597.498 158.337V172.763H596.715C593.909 172.726 591.12 173.216 588.494 174.208C586.052 175.173 583.859 176.676 582.078 178.605C580.192 180.7 578.774 183.175 577.923 185.863C576.883 189.195 576.384 192.672 576.446 196.163V218.81H562.864V159.361Z" fill="#101820"/>
<path d="M625.114 163.578L596.231 192.459L625.114 183.665L647.64 208.992L649.055 175.835L679.021 163.578L649.659 151.29L645.984 120L626.951 143.912L596.231 138.371L625.114 163.578Z" fill="#FFC107"/>
<path d="M501.731 236.938C499.105 236.963 496.525 237.629 494.215 238.878C491.906 240.127 489.938 241.922 488.48 244.106C487.03 241.921 485.068 240.124 482.764 238.875C480.457 237.625 477.882 236.96 475.259 236.938C471.058 236.938 467.03 238.607 464.056 241.578C461.086 244.549 459.419 248.578 459.419 252.779C459.419 258.351 462.913 262.356 466.585 266.06L480.951 279.643C481.119 279.804 481.33 279.911 481.56 279.952C481.788 279.992 482.024 279.964 482.238 279.871C482.449 279.777 482.631 279.623 482.756 279.427C482.88 279.23 482.943 279.002 482.937 278.769V268.199C482.937 266.729 483.523 265.319 484.561 264.28C485.602 263.241 487.011 262.657 488.48 262.657C489.949 262.657 491.359 263.241 492.399 264.28C493.437 265.319 494.02 266.729 494.02 268.199V278.799C494.015 279.032 494.08 279.26 494.205 279.457C494.329 279.653 494.511 279.807 494.722 279.901C494.936 279.994 495.172 280.023 495.4 279.982C495.63 279.941 495.842 279.834 496.01 279.673L510.375 266.09C514.047 262.386 517.571 258.381 517.571 252.809C517.576 250.727 517.17 248.664 516.376 246.738C515.582 244.813 514.413 243.063 512.942 241.589C511.473 240.115 509.724 238.945 507.8 238.147C505.876 237.349 503.813 236.938 501.731 236.938ZM474.115 265.006C474.012 265.121 473.887 265.212 473.746 265.274C473.608 265.336 473.456 265.368 473.302 265.368C473.025 265.371 472.76 265.275 472.548 265.097C470.496 263.568 468.8 261.614 467.575 259.368C466.347 257.123 465.62 254.639 465.442 252.087C465.493 250.102 466.008 248.156 466.943 246.405C467.881 244.653 469.212 243.145 470.833 241.998C470.952 241.921 471.087 241.868 471.228 241.843C471.369 241.818 471.513 241.821 471.654 241.852C471.792 241.882 471.925 241.94 472.044 242.022C472.161 242.104 472.261 242.208 472.337 242.329C472.415 242.45 472.467 242.584 472.491 242.725C472.518 242.866 472.516 243.011 472.483 243.151C472.453 243.29 472.396 243.423 472.312 243.54C472.231 243.658 472.128 243.758 472.006 243.835C470.694 244.784 469.616 246.021 468.851 247.451C468.09 248.881 467.664 250.467 467.61 252.087C467.805 254.332 468.48 256.509 469.586 258.472C470.692 260.435 472.207 262.14 474.025 263.47C474.131 263.565 474.218 263.68 474.28 263.809C474.345 263.937 474.38 264.077 474.389 264.219C474.397 264.362 474.378 264.505 474.332 264.64C474.283 264.775 474.21 264.9 474.115 265.006ZM481.162 260.941C481.067 261.111 480.926 261.252 480.755 261.348C480.587 261.444 480.392 261.491 480.197 261.483C480.029 261.527 479.853 261.527 479.685 261.483C478.105 260.606 476.779 259.336 475.833 257.795C474.89 256.254 474.359 254.495 474.296 252.689C474.299 251.074 474.744 249.491 475.584 248.111C476.421 246.73 477.622 245.606 479.053 244.859C479.313 244.732 479.614 244.711 479.888 244.8C480.165 244.89 480.395 245.084 480.53 245.341C480.652 245.599 480.674 245.893 480.59 246.166C480.506 246.439 480.324 246.671 480.078 246.816C478.977 247.385 478.059 248.25 477.424 249.315C476.79 250.38 476.467 251.601 476.495 252.839C476.554 254.252 476.977 255.625 477.72 256.828C478.462 258.03 479.503 259.021 480.739 259.706C480.934 259.838 481.081 260.03 481.157 260.253C481.232 260.476 481.235 260.717 481.162 260.941ZM488.48 258.14C487.531 258.146 486.599 257.869 485.808 257.346C485.016 256.822 484.398 256.074 484.032 255.198C483.666 254.322 483.569 253.356 483.753 252.425C483.935 251.493 484.393 250.637 485.065 249.966C485.734 249.294 486.591 248.838 487.523 248.654C488.456 248.47 489.421 248.567 490.296 248.933C491.172 249.3 491.92 249.918 492.443 250.71C492.969 251.502 493.245 252.432 493.237 253.382C493.237 254.006 493.115 254.625 492.876 255.202C492.638 255.78 492.286 256.304 491.844 256.746C491.402 257.188 490.879 257.539 490.302 257.778C489.724 258.017 489.104 258.14 488.48 258.14ZM497.303 261.362C497.126 261.404 496.939 261.404 496.76 261.362C496.568 261.367 496.376 261.319 496.205 261.223C496.037 261.128 495.896 260.989 495.798 260.82C495.665 260.563 495.633 260.264 495.712 259.984C495.79 259.704 495.972 259.465 496.218 259.314C497.465 258.638 498.514 257.649 499.265 256.446C500.013 255.242 500.438 253.865 500.495 252.448C500.523 251.209 500.2 249.988 499.566 248.924C498.931 247.859 498.013 246.993 496.912 246.425C496.785 246.358 496.671 246.267 496.582 246.157C496.489 246.046 496.419 245.919 496.378 245.782C496.335 245.644 496.321 245.5 496.335 245.357C496.351 245.214 496.392 245.075 496.46 244.949C496.525 244.819 496.614 244.704 496.722 244.609C496.831 244.514 496.958 244.442 497.097 244.397C497.235 244.352 497.378 244.335 497.525 244.347C497.668 244.359 497.809 244.4 497.937 244.467C499.354 245.23 500.544 246.358 501.382 247.734C502.219 249.111 502.672 250.687 502.694 252.297C502.661 254.147 502.149 255.956 501.203 257.546C500.257 259.135 498.912 260.451 497.303 261.362ZM511.668 252.087C511.486 254.641 510.752 257.126 509.521 259.371C508.288 261.616 506.588 263.569 504.531 265.097C504.431 265.198 504.312 265.278 504.179 265.333C504.049 265.387 503.905 265.416 503.764 265.416C503.621 265.416 503.48 265.387 503.347 265.333C503.217 265.278 503.097 265.198 502.994 265.097C502.894 264.996 502.816 264.876 502.759 264.744C502.704 264.613 502.677 264.471 502.677 264.329C502.677 264.186 502.704 264.045 502.759 263.913C502.816 263.781 502.894 263.661 502.994 263.561C504.81 262.228 506.32 260.523 507.421 258.56C508.521 256.596 509.19 254.42 509.38 252.177C509.323 250.561 508.9 248.978 508.144 247.549C507.388 246.12 506.317 244.881 505.014 243.925C504.886 243.854 504.775 243.758 504.688 243.642C504.599 243.526 504.537 243.393 504.504 243.251C504.469 243.11 504.466 242.963 504.491 242.82C504.515 242.677 504.572 242.54 504.653 242.42C504.729 242.298 504.829 242.193 504.946 242.111C505.062 242.028 505.195 241.97 505.336 241.94C505.477 241.909 505.621 241.906 505.762 241.931C505.903 241.957 506.038 242.01 506.157 242.088C507.789 243.228 509.128 244.735 510.069 246.487C511.012 248.24 511.527 250.188 511.578 252.177L511.668 252.087Z" fill="#C6002B"/>
<path d="M536.997 246.877H545.069V257.718H555.398V246.877H563.47V275.968H555.398V264.916H545.069V275.968H536.997V246.877Z" fill="#101820"/>
<path d="M565.874 264.826C565.809 263.298 566.056 261.772 566.598 260.342C567.14 258.912 567.967 257.606 569.029 256.505C570.092 255.404 571.366 254.53 572.775 253.936C574.185 253.342 575.7 253.041 577.228 253.051C584.969 253.051 588.553 258.743 588.553 265.368C588.553 265.85 588.553 266.422 588.553 266.964H573.496C573.718 268.069 574.339 269.055 575.236 269.736C576.133 270.418 577.25 270.75 578.375 270.669C579.315 270.657 580.245 270.447 581.102 270.053C581.958 269.659 582.722 269.089 583.343 268.38L587.71 271.994C586.555 273.471 585.067 274.652 583.362 275.438C581.66 276.224 579.795 276.592 577.922 276.511C576.345 276.613 574.762 276.383 573.279 275.837C571.797 275.291 570.444 274.44 569.309 273.339C568.173 272.238 567.281 270.912 566.69 269.446C566.099 267.98 565.823 266.406 565.874 264.826ZM581.145 262.778C581.169 262.257 581.088 261.737 580.901 261.249C580.717 260.761 580.432 260.317 580.069 259.944C579.703 259.571 579.267 259.277 578.781 259.081C578.299 258.884 577.781 258.79 577.258 258.803C576.217 258.826 575.228 259.255 574.496 259.997C573.764 260.739 573.352 261.737 573.344 262.778H581.145Z" fill="#101820"/>
<path d="M614.995 253.502H622.885V258.019C623.338 256.517 624.289 255.213 625.579 254.321C626.869 253.43 628.425 253.003 629.992 253.111V261.422H629.331C625.232 261.422 622.885 263.802 622.885 268.982V275.968H614.995V253.502Z" fill="#101820"/>
<path d="M634.929 268.982V259.947H632.278V253.502H634.929V247.811H642.819V253.502H648.061V259.857H642.819V267.446C642.819 269.042 643.543 269.705 644.987 269.705C646.036 269.681 647.064 269.423 647.999 268.952V274.975C646.316 275.875 644.426 276.321 642.518 276.27C641.513 276.431 640.483 276.356 639.51 276.051C638.537 275.746 637.648 275.22 636.91 274.514C636.176 273.808 635.615 272.941 635.271 271.981C634.926 271.021 634.81 269.994 634.929 268.982Z" fill="#101820"/>
<path d="M529.255 244.799C528.428 244.799 527.618 245.045 526.929 245.505C526.241 245.965 525.704 246.618 525.387 247.383C525.073 248.148 524.989 248.99 525.151 249.802C525.311 250.614 525.71 251.36 526.295 251.945C526.881 252.531 527.626 252.929 528.439 253.091C529.252 253.252 530.092 253.169 530.857 252.853C531.624 252.536 532.277 251.999 532.738 251.311C533.196 250.622 533.442 249.813 533.442 248.985C533.442 247.875 533.001 246.81 532.215 246.025C531.431 245.24 530.366 244.799 529.255 244.799Z" fill="#101820"/>
<path d="M611.951 264.675C612.005 263.095 611.729 261.522 611.138 260.055C610.547 258.589 609.655 257.263 608.52 256.162C607.384 255.062 606.032 254.211 604.549 253.664C603.066 253.118 601.484 252.888 599.906 252.99C598.02 252.939 596.149 253.342 594.45 254.165C592.753 254.987 591.276 256.206 590.149 257.718L594.515 261.332C595.141 260.628 595.906 260.061 596.759 259.667C597.616 259.273 598.543 259.061 599.483 259.044C600.592 258.966 601.69 259.289 602.579 259.952C603.468 260.615 604.091 261.575 604.332 262.658V262.838H599.153C592.677 262.838 589.306 265.338 589.306 269.885C589.306 274.433 592.317 276.631 597.797 276.631C599.039 276.663 600.272 276.438 601.424 275.972C602.573 275.506 603.614 274.808 604.484 273.921V276.089H611.951V264.675ZM600.177 271.481C598.128 271.481 596.895 270.397 596.895 268.982C596.895 267.566 597.979 266.904 599.906 266.904H604.424V267.145C604.435 267.71 604.335 268.272 604.126 268.798C603.918 269.323 603.609 269.802 603.213 270.206C602.817 270.61 602.345 270.931 601.822 271.15C601.302 271.369 600.744 271.482 600.177 271.481Z" fill="#101820"/>
<path d="M529.406 255.158H529.105C528.566 255.158 528.035 255.264 527.539 255.47C527.04 255.676 526.59 255.978 526.208 256.358C525.828 256.738 525.527 257.19 525.321 257.687C525.115 258.184 525.01 258.716 525.01 259.254V275.968H533.531V259.254C533.531 258.714 533.426 258.179 533.217 257.68C533.008 257.181 532.705 256.728 532.322 256.347C531.938 255.967 531.482 255.666 530.984 255.462C530.482 255.258 529.945 255.155 529.406 255.158Z" fill="#101820"/>
<path d="M369.16 246.425C369.156 246.163 369.205 245.903 369.303 245.66C369.402 245.417 369.548 245.196 369.733 245.011C369.919 244.825 370.139 244.679 370.383 244.58C370.625 244.482 370.886 244.433 371.148 244.437H384.278C384.533 244.404 384.792 244.426 385.038 244.501C385.284 244.576 385.511 244.702 385.704 244.872C385.897 245.042 386.051 245.25 386.157 245.484C386.263 245.718 386.318 245.972 386.318 246.229C386.318 246.486 386.263 246.74 386.157 246.974C386.051 247.209 385.897 247.417 385.704 247.587C385.511 247.757 385.284 247.883 385.038 247.958C384.792 248.033 384.533 248.054 384.278 248.021H373.135V254.044H382.863C383.342 254.044 383.802 254.235 384.141 254.574C384.479 254.913 384.67 255.372 384.67 255.851C384.67 256.33 384.479 256.79 384.141 257.129C383.802 257.468 383.342 257.658 382.863 257.658H373.135V265.007C373.14 265.265 373.092 265.521 372.995 265.761C372.898 266 372.754 266.217 372.571 266.4C372.389 266.582 372.171 266.726 371.932 266.823C371.693 266.92 371.436 266.968 371.178 266.964C370.918 266.968 370.661 266.92 370.42 266.824C370.179 266.727 369.959 266.584 369.774 266.402C369.589 266.219 369.443 266.002 369.342 265.763C369.242 265.523 369.19 265.266 369.19 265.007L369.16 246.425Z" fill="#101820"/>
<path d="M389.82 251.696C389.816 251.44 389.862 251.186 389.958 250.949C390.052 250.711 390.194 250.495 390.373 250.313C390.553 250.131 390.766 249.986 391.002 249.888C391.237 249.789 391.492 249.738 391.747 249.738C392.004 249.738 392.259 249.789 392.495 249.887C392.734 249.985 392.95 250.13 393.132 250.311C393.314 250.493 393.457 250.709 393.555 250.946C393.655 251.184 393.704 251.438 393.704 251.696V253.442C393.997 252.482 394.552 251.623 395.308 250.962C396.065 250.302 396.989 249.868 397.981 249.708C398.238 249.69 398.496 249.728 398.74 249.818C398.981 249.909 399.201 250.05 399.382 250.233C399.567 250.416 399.707 250.635 399.797 250.877C399.889 251.119 399.927 251.378 399.908 251.635C399.922 252.08 399.772 252.514 399.491 252.857C399.209 253.2 398.81 253.43 398.371 253.502C395.601 253.984 393.704 256.092 393.704 260.128V265.127C393.696 265.641 393.487 266.131 393.121 266.492C392.755 266.853 392.262 267.055 391.747 267.055C391.235 267.055 390.745 266.852 390.384 266.49C390.023 266.129 389.82 265.638 389.82 265.127V251.696Z" fill="#101820"/>
<path d="M401.595 258.532C401.595 256.136 402.549 253.838 404.243 252.143C405.937 250.449 408.235 249.497 410.631 249.497C413.027 249.497 415.326 250.449 417.02 252.143C418.714 253.838 419.665 256.136 419.665 258.532C419.619 260.897 418.646 263.149 416.955 264.804C415.266 266.459 412.995 267.387 410.631 267.386C409.45 267.418 408.276 267.213 407.178 266.782C406.078 266.35 405.078 265.702 404.235 264.876C403.392 264.05 402.722 263.062 402.27 261.973C401.817 260.882 401.587 259.712 401.595 258.532ZM415.811 258.532C415.838 257.829 415.724 257.127 415.478 256.469C415.228 255.811 414.849 255.209 414.364 254.701C413.876 254.192 413.293 253.786 412.645 253.508C412 253.23 411.304 253.085 410.602 253.081C409.902 253.076 409.214 253.214 408.572 253.486C407.929 253.759 407.352 254.16 406.872 254.666C406.39 255.171 406.021 255.769 405.78 256.424C405.541 257.079 405.438 257.776 405.482 258.472C405.452 259.172 405.566 259.872 405.812 260.528C406.059 261.184 406.436 261.784 406.918 262.293C407.401 262.801 407.981 263.207 408.623 263.487C409.268 263.767 409.959 263.915 410.661 263.923C411.358 263.928 412.052 263.79 412.694 263.518C413.336 263.246 413.917 262.845 414.399 262.34C414.881 261.835 415.255 261.236 415.499 260.582C415.741 259.927 415.846 259.229 415.811 258.532Z" fill="#101820"/>
<path d="M423.672 251.695C423.664 251.439 423.707 251.183 423.802 250.944C423.894 250.705 424.035 250.487 424.217 250.304C424.396 250.121 424.612 249.976 424.848 249.879C425.087 249.782 425.341 249.734 425.599 249.738C425.856 249.738 426.111 249.789 426.347 249.887C426.586 249.985 426.802 250.13 426.984 250.311C427.166 250.493 427.309 250.709 427.407 250.946C427.504 251.184 427.556 251.438 427.556 251.695V252.508C428.082 251.598 428.835 250.841 429.746 250.313C430.654 249.785 431.684 249.503 432.736 249.497C433.782 249.451 434.817 249.711 435.717 250.246C436.614 250.781 437.338 251.568 437.796 252.508C438.427 251.575 439.281 250.812 440.279 250.287C441.279 249.762 442.39 249.49 443.518 249.497C444.363 249.444 445.212 249.58 446 249.896C446.789 250.211 447.497 250.698 448.074 251.32C448.648 251.943 449.079 252.686 449.334 253.496C449.589 254.306 449.659 255.162 449.54 256.002V265.037C449.481 265.51 449.253 265.946 448.895 266.262C448.537 266.578 448.077 266.752 447.599 266.752C447.122 266.752 446.659 266.578 446.304 266.262C445.946 265.946 445.716 265.51 445.656 265.037V257.297C445.656 254.587 444.39 253.141 442.192 253.141C439.994 253.141 438.579 254.617 438.579 257.357V265.157C438.52 265.631 438.289 266.066 437.931 266.382C437.574 266.698 437.113 266.872 436.636 266.872C436.159 266.872 435.698 266.698 435.34 266.382C434.982 266.066 434.752 265.631 434.692 265.157V257.267C434.692 254.617 433.4 253.141 431.231 253.141C429.063 253.141 427.616 254.737 427.616 257.357V265.157C427.616 265.413 427.567 265.666 427.466 265.902C427.369 266.138 427.223 266.351 427.041 266.531C426.859 266.71 426.642 266.852 426.407 266.947C426.168 267.042 425.913 267.089 425.659 267.085C425.404 267.089 425.152 267.042 424.916 266.946C424.68 266.851 424.466 266.709 424.287 266.529C424.108 266.35 423.965 266.135 423.87 265.9C423.775 265.664 423.726 265.411 423.731 265.157L423.672 251.695Z" fill="#101820"/>
</svg>
