<?xml version="1.0" encoding="utf-8"?>
<!-- Generator: Adobe Illustrator 23.0.4, SVG Export Plug-In . SVG Version: 6.00 Build 0)  -->
<svg version="1.1" id="Layer_1" xmlns="http://www.w3.org/2000/svg" xmlns:xlink="http://www.w3.org/1999/xlink" x="0px" y="0px"
	 viewBox="0 0 2525.19 371.06" style="enable-background:new 0 0 2525.19 371.06;" xml:space="preserve">
<style type="text/css">
	.st0{fill:#EA4335;}
	.st1{fill:#4285F4;}
	.st2{fill:#FBBC04;}
	.st3{fill:#0F9D58;}
	.st4{fill:#676C72;}
	.st5{fill:#6B6B6B;}
</style>
<g>
	<g>
		<g>
			<path class="st0" d="M150.24,186.12l101.56-58.64c23.9-13.8,32.09-44.36,18.29-68.26s-44.36-32.09-68.26-18.29L26.34,142.25
				L150.24,186.12z"/>
		</g>
		<g>
			<path class="st1" d="M226.77,336.83c17.27,0,34.07-8.96,43.32-25c13.8-23.9,5.61-54.47-18.29-68.26L76.31,142.25
				c-23.9-13.81-54.46-5.61-68.26,18.29c-13.8,23.9-5.61,54.47,18.29,68.26l175.5,101.32C209.7,334.67,218.3,336.83,226.77,336.83z"
				/>
		</g>
		<g>
			<path class="st2" d="M401.35,336.83c8.48,0,17.07-2.16,24.94-6.7l175.49-101.32l-122.33-44.78l-103.14,59.55
				c-23.9,13.8-32.09,44.36-18.29,68.26C367.28,327.87,384.07,336.83,401.35,336.83z"/>
		</g>
		<g>
			<path class="st3" d="M576.75,235.51c17.27,0,34.07-8.96,43.32-25c13.8-23.9,5.61-54.46-18.29-68.26L426.28,40.93
				c-23.9-13.8-54.46-5.61-68.26,18.29c-13.8,23.9-5.61,54.46,18.29,68.26l175.49,101.32C559.68,233.35,568.27,235.51,576.75,235.51
				z"/>
		</g>
	</g>
	<g>
		<path class="st4" d="M825.23,285.93c-17.46-10.06-31.33-23.93-41.6-41.6c-10.28-17.67-15.41-37.18-15.41-58.55
			c0-21.37,5.13-40.88,15.41-58.55c10.27-17.67,24.14-31.53,41.6-41.6c17.46-10.06,36.57-15.1,57.32-15.1
			c16.23,0,31.48,2.88,45.76,8.63c14.28,5.75,26.04,13.87,35.29,24.35l-18.8,18.8c-6.99-8.63-15.92-15.25-26.81-19.88
			c-10.89-4.62-22.6-6.93-35.13-6.93c-15.62,0-30.15,3.75-43.61,11.25c-13.46,7.5-24.24,18.08-32.36,31.74
			c-8.12,13.67-12.17,29.43-12.17,47.3s4.05,33.64,12.17,47.3c8.11,13.67,18.95,24.24,32.51,31.74
			c13.56,7.5,28.04,11.25,43.45,11.25c14.79,0,27.17-2.31,37.13-6.93c9.96-4.62,18.54-10.73,25.73-18.34
			c5.34-5.75,9.65-12.68,12.94-20.8c3.28-8.11,5.34-17.1,6.16-26.96h-81.67v-24.35h106.01c1.03,5.75,1.54,11.09,1.54,16.02
			c0,13.56-2.16,26.76-6.47,39.6c-4.31,12.84-11.2,24.09-20.65,33.75c-20.34,21.99-47.36,32.97-81.05,32.97
			C861.8,301.03,842.69,296,825.23,285.93z"/>
		<path class="st4" d="M1023.38,75.45h66.57c22.6,0,42.32,4.68,59.17,14.02c16.84,9.35,29.79,22.34,38.83,38.98
			c9.04,16.64,13.56,35.75,13.56,57.32s-4.52,40.68-13.56,57.32c-9.04,16.64-21.99,29.64-38.83,38.98
			c-16.85,9.35-36.57,14.02-59.17,14.02h-66.57V75.45z M1089.95,271.14c26.09,0,46.79-7.5,62.1-22.5
			c15.3-14.99,22.96-35.95,22.96-62.87c0-26.91-7.66-47.87-22.96-62.87c-15.31-14.99-36.01-22.5-62.1-22.5h-40.68v170.73H1089.95z"
			/>
		<path class="st4" d="M1280.09,285.93c-17.46-10.06-31.33-23.93-41.6-41.6c-10.28-17.67-15.41-37.18-15.41-58.55
			c0-21.37,5.13-40.88,15.41-58.55c10.27-17.67,24.14-31.53,41.6-41.6c17.46-10.06,36.57-15.1,57.32-15.1
			c16.23,0,31.48,2.88,45.76,8.63c14.28,5.75,26.04,13.87,35.29,24.35l-18.8,18.8c-6.99-8.63-15.92-15.25-26.81-19.88
			c-10.89-4.62-22.6-6.93-35.13-6.93c-15.62,0-30.15,3.75-43.61,11.25c-13.46,7.5-24.25,18.08-32.36,31.74
			c-8.12,13.67-12.17,29.43-12.17,47.3s4.05,33.64,12.17,47.3c8.11,13.67,18.95,24.24,32.51,31.74
			c13.56,7.5,28.04,11.25,43.45,11.25c14.79,0,27.17-2.31,37.13-6.93c9.96-4.62,18.54-10.73,25.73-18.34
			c5.34-5.75,9.66-12.68,12.94-20.8c3.28-8.11,5.34-17.1,6.16-26.96h-81.67v-24.35h106.01c1.03,5.75,1.54,11.09,1.54,16.02
			c0,13.56-2.16,26.76-6.47,39.6c-4.31,12.84-11.2,24.09-20.65,33.75c-20.34,21.99-47.36,32.97-81.05,32.97
			C1316.65,301.03,1297.55,296,1280.09,285.93z"/>
	</g>
</g>
<g>
	<path class="st5" d="M1622.32,301.03h-28.43l-74.62-224.71h30.2l58.04,182.34h1.18l60.41-182.34h30.2L1622.32,301.03z"/>
	<path class="st5" d="M1769.79,306.05c-21.32,0-38.89-7.74-52.71-23.22c-13.82-15.48-20.73-35.04-20.73-58.69
		c0-23.43,6.71-42.94,20.14-58.53c13.42-15.58,30.6-23.38,51.53-23.38c21.51,0,38.64,7.38,51.38,22.13
		c12.73,14.75,19.1,35.42,19.1,61.98l-0.3,3.14h-114.01c0.39,15.06,5.13,27.2,14.21,36.41c9.08,9.21,19.94,13.81,32.57,13.81
		c17.37,0,30.99-9.21,40.87-27.62l24.28,12.55c-6.51,12.97-15.55,23.12-27.1,30.44S1784.4,306.05,1769.79,306.05z M1726.26,205.62
		h83.21c-0.79-10.67-4.89-19.51-12.29-26.52c-7.4-7.01-17.32-10.51-29.76-10.51c-10.27,0-19.1,3.35-26.5,10.04
		C1733.52,185.33,1728.63,194.33,1726.26,205.62z"/>
	<path class="st5" d="M1863.36,147.25h26.06v21.34h1.18c4.15-7.53,10.51-13.81,19.1-18.83c8.59-5.02,17.52-7.53,26.8-7.53
		c17.77,0,31.44,5.39,41.01,16.16c9.57,10.78,14.36,26.1,14.36,45.98v96.66h-27.24v-94.78c-0.59-25.11-12.54-37.66-35.83-37.66
		c-10.86,0-19.94,4.66-27.24,13.97c-7.31,9.31-10.96,20.45-10.96,33.42v85.05h-27.24V147.25z"/>
	<path class="st5" d="M2089.01,306.05c-21.32,0-38.89-7.74-52.71-23.22c-13.82-15.48-20.73-35.04-20.73-58.69
		c0-23.43,6.71-42.94,20.14-58.53c13.42-15.58,30.6-23.38,51.53-23.38c21.51,0,38.64,7.38,51.38,22.13
		c12.73,14.75,19.1,35.42,19.1,61.98l-0.3,3.14H2043.4c0.39,15.06,5.13,27.2,14.21,36.41c9.08,9.21,19.94,13.81,32.57,13.81
		c17.37,0,30.99-9.21,40.87-27.62l24.28,12.55c-6.51,12.97-15.55,23.12-27.1,30.44S2103.61,306.05,2089.01,306.05z M2045.48,205.62
		h83.21c-0.79-10.67-4.89-19.51-12.29-26.52c-7.4-7.01-17.32-10.51-29.76-10.51c-10.27,0-19.1,3.35-26.5,10.04
		C2052.73,185.33,2047.85,194.33,2045.48,205.62z"/>
	<path class="st5" d="M2291.26,301.03H2174v-25.11l82.62-102.31h-80.25v-26.36h113.71v25.11l-82.62,102.31h83.8V301.03z"/>
	<path class="st5" d="M2355.51,94.21c0,5.65-1.88,10.46-5.63,14.44c-3.75,3.98-8.29,5.96-13.62,5.96s-9.87-1.99-13.62-5.96
		c-3.75-3.97-5.63-8.79-5.63-14.44c0-5.65,1.87-10.46,5.63-14.44c3.75-3.97,8.29-5.96,13.62-5.96s9.87,1.99,13.62,5.96
		C2353.64,83.75,2355.51,88.56,2355.51,94.21z M2349.89,147.25v153.78h-27.24V147.25H2349.89z"/>
	<path class="st5" d="M2439.02,142.23c20.14,0,36.03,5.7,47.68,17.1c11.65,11.41,17.47,27.04,17.47,46.92v94.78h-26.06v-21.34h-1.18
		c-11.25,17.58-26.26,26.36-45.01,26.36c-15.99,0-29.37-5.02-40.12-15.06c-10.76-10.04-16.14-22.6-16.14-37.66
		c0-15.9,5.67-28.56,17.03-37.97c11.35-9.42,26.5-14.12,45.46-14.12c16.18,0,29.51,3.14,39.98,9.42v-6.59
		c0-10.04-3.75-18.57-11.25-25.58c-7.5-7.01-16.29-10.51-26.35-10.51c-15.2,0-27.24,6.8-36.13,20.4l-23.99-16.01
		C2393.61,152.27,2413.16,142.23,2439.02,142.23z M2403.78,253.96c0,7.53,3.01,13.81,9.03,18.83c6.02,5.02,13.08,7.53,21.17,7.53
		c11.45,0,21.66-4.5,30.65-13.5c8.98-8.99,13.47-19.56,13.47-31.7c-8.49-7.11-20.34-10.67-35.54-10.67
		c-11.06,0-20.28,2.82-27.69,8.47C2407.48,238.58,2403.78,245.59,2403.78,253.96z"/>
</g>
</svg>
